<?xml version="1.0" standalone="no"?>
<!DOCTYPE svg PUBLIC "-//W3C//DTD SVG 20010904//EN"
 "http://www.w3.org/TR/2001/REC-SVG-20010904/DTD/svg10.dtd">
<svg version="1.0" xmlns="http://www.w3.org/2000/svg"
 width="225.000000pt" height="225.000000pt" viewBox="0 0 225.000000 225.000000"
 preserveAspectRatio="xMidYMid meet">

<g transform="translate(0.000000,225.000000) scale(0.100000,-0.100000)"
fill="#000000" stroke="none">
<path d="M105 2231 c-48 -22 -69 -44 -90 -94 -13 -32 -15 -157 -15 -1014 0
-928 1 -980 19 -1018 22 -48 44 -69 94 -90 32 -13 157 -15 1014 -15 928 0 980
1 1018 19 48 22 69 44 90 94 13 32 15 157 15 1012 0 855 -2 980 -15 1012 -21
50 -42 72 -90 94 -38 18 -90 19 -1020 19 -930 0 -982 -1 -1020 -19z m1143
-521 c100 -17 167 -46 228 -102 30 -28 66 -73 80 -99 26 -52 56 -167 48 -181
-3 -4 -63 -8 -134 -8 l-129 0 -15 53 c-25 86 -82 127 -177 127 -130 0 -200
-87 -219 -276 -19 -178 11 -346 73 -413 56 -61 196 -81 285 -41 l42 19 0 91 0
90 -95 0 -95 0 0 100 0 100 235 0 235 0 0 -239 0 -239 -41 -36 c-81 -69 -272
-126 -418 -126 -242 1 -423 138 -487 370 -15 51 -18 101 -18 230 0 152 2 171
27 247 85 255 297 378 575 333z"/>
</g>
</svg>
