<?xml version="1.0" standalone="no"?>
<!DOCTYPE svg PUBLIC "-//W3C//DTD SVG 20010904//EN"
 "http://www.w3.org/TR/2001/REC-SVG-20010904/DTD/svg10.dtd">
<svg version="1.0" xmlns="http://www.w3.org/2000/svg"
 width="67.000000pt" height="67.000000pt" viewBox="0 0 67.000000 67.000000"
 preserveAspectRatio="xMidYMid meet">

<g transform="translate(0.000000,67.000000) scale(0.100000,-0.100000)"
fill="#000000" stroke="none">
<path d="M270 637 c-13 -7 -35 -28 -48 -47 -20 -29 -23 -44 -19 -89 3 -47 9
-59 40 -88 20 -18 30 -33 23 -33 -29 0 -80 -56 -111 -122 -42 -86 -52 -155
-31 -196 24 -47 56 -54 226 -50 l152 3 25 29 c22 26 25 36 20 85 -9 96 -83
229 -138 246 -18 6 -18 8 10 34 61 57 59 151 -3 209 -29 26 -44 32 -78 32 -24
0 -54 -6 -68 -13z"/>
</g>
</svg>
