<?xml version="1.0" standalone="no"?>
<!DOCTYPE svg PUBLIC "-//W3C//DTD SVG 20010904//EN"
 "http://www.w3.org/TR/2001/REC-SVG-20010904/DTD/svg10.dtd">
<svg version="1.0" xmlns="http://www.w3.org/2000/svg"
 width="512.000000pt" height="512.000000pt" viewBox="0 0 512.000000 512.000000"
 preserveAspectRatio="xMidYMid meet">

<g transform="translate(0.000000,512.000000) scale(0.100000,-0.100000)"
fill="#000000" stroke="none">
<path d="M2321 5110 c-497 -48 -990 -251 -1376 -565 -114 -92 -294 -274 -384
-387 -229 -287 -417 -675 -495 -1023 -49 -218 -60 -325 -60 -575 0 -250 11
-357 60 -575 79 -355 272 -749 509 -1040 92 -114 274 -294 387 -384 287 -229
675 -417 1023 -495 218 -49 325 -60 575 -60 250 0 357 11 575 60 261 58 603
204 828 353 389 259 688 599 893 1016 125 255 196 484 241 775 24 161 24 539
0 700 -45 291 -116 520 -241 775 -134 272 -283 480 -498 692 -211 209 -404
346 -673 478 -252 124 -486 197 -765 240 -126 19 -468 27 -599 15z m477 -281
c410 -44 805 -201 1141 -452 123 -92 346 -315 438 -438 455 -609 584 -1380
349 -2094 -76 -230 -198 -462 -349 -664 -92 -123 -315 -346 -438 -438 -609
-455 -1380 -584 -2094 -349 -230 76 -462 198 -664 349 -123 92 -346 315 -438
438 -399 534 -548 1186 -417 1837 64 321 211 646 417 921 92 123 315 346 438
438 329 246 729 407 1124 451 114 13 379 14 493 1z"/>
<path d="M2291 4564 c-338 -46 -678 -187 -955 -397 -104 -78 -305 -279 -383
-383 -403 -534 -520 -1223 -313 -1855 95 -289 254 -550 474 -777 85 -87 238
-220 266 -230 5 -2 10 126 12 285 4 282 4 290 31 369 67 202 230 363 433 430
l89 29 615 0 615 0 89 -29 c203 -67 366 -228 433 -430 27 -79 27 -87 31 -369
2 -159 7 -287 12 -285 28 10 181 143 267 230 645 664 759 1669 279 2457 -87
143 -168 244 -300 377 -225 225 -439 361 -744 475 -284 106 -643 145 -951 103z
m479 -734 c281 -94 468 -334 487 -623 8 -128 -14 -234 -75 -357 -79 -161 -238
-300 -402 -351 -103 -32 -208 -43 -298 -30 -175 23 -292 81 -417 206 -143 143
-215 331 -202 532 19 289 212 536 487 622 93 29 102 30 235 26 90 -2 136 -8
185 -25z"/>
</g>
</svg>
